<svg xmlns="http://www.w3.org/2000/svg" width="1280" height="800" viewBox="0 0 1280 800" font-family="Helvetica, Arial, sans-serif">
<rect width="1280" height="800" fill="#0f141a"/>
<rect x="0" y="0" width="780" height="800" fill="#141c24"/>
<rect x="290" y="0" width="200" height="800" fill="#1b2530"/>
<rect x="355" y="520" width="70" height="120" rx="14" fill="#f4f7fa"/>
<rect x="378" y="300" width="24" height="220" fill="#2bd4c4" opacity="0.35"/>
<text x="40" y="770" fill="#5d6b78" font-size="18">SAMPLE FIGMA EXPORT · replace with your frames (src/designs/sample-figma)</text>

<rect x="380" y="200" width="160" height="80" rx="6" fill="#ff8a3d" opacity="0.9"/>
<rect x="355" y="470" width="70" height="8" fill="#ff8a3d"/>
<rect x="820" y="60" width="420" height="200" rx="20" fill="#3a2a12"/>
<text x="850" y="120" fill="#ffd9a8" font-size="30" font-weight="700">We stopped for a</text>
<text x="850" y="160" fill="#ffd9a8" font-size="30" font-weight="700">parked fire truck</text>
<text x="850" y="210" fill="#e8cfa8" font-size="22">Checking it's safe to go around</text>
<text x="830" y="330" fill="#8a97a5" font-size="24">Arriving</text>
<text x="830" y="390" fill="#fff" font-size="54" font-weight="700">2:27 PM</text>
<rect x="830" y="520" width="400" height="96" rx="48" fill="#2bd4c4"/>
<text x="1030" y="580" fill="#06201d" font-size="30" font-weight="700" text-anchor="middle">Get help</text>
<rect x="830" y="640" width="400" height="96" rx="48" fill="#26323e"/>
<text x="1030" y="700" fill="#fff" font-size="30" text-anchor="middle">What's happening?</text>
</svg>
